<svg width="15" height="18" viewBox="0 0 15 18" fill="none" xmlns="http://www.w3.org/2000/svg">
<path d="M14.0001 7.54545C14.0001 12.6364 7.45463 17 7.45463 17C7.45463 17 0.90918 12.6364 0.90918 7.54545C0.90918 5.80949 1.59879 4.14463 2.8263 2.91712C4.05381 1.68961 5.71867 1 7.45463 1C9.1906 1 10.8555 1.68961 12.083 2.91712C13.3105 4.14463 14.0001 5.80949 14.0001 7.54545Z" stroke="black" stroke-linecap="round" stroke-linejoin="round"/>
<path d="M7.45465 9.72692C8.65963 9.72692 9.63646 8.75008 9.63646 7.5451C9.63646 6.34011 8.65963 5.36328 7.45465 5.36328C6.24966 5.36328 5.27283 6.34011 5.27283 7.5451C5.27283 8.75008 6.24966 9.72692 7.45465 9.72692Z" stroke="black" stroke-linecap="round" stroke-linejoin="round"/>
</svg>
